HIERARCHY
ROOT ROOT
{
	OFFSET 0.000000 56.020000 -5.659234
	CHANNELS 6 Xposition Yposition Zposition Xrotation Yrotation Zrotation 
	JOINT C_spine0001_bind_JNT
	{
		OFFSET 0.000000 1.618999 0.000000
		CHANNELS 3 Xrotation Yrotation Zrotation
		JOINT C_spine0002_bind_JNT
		{
			OFFSET 0.000000 4.942001 0.000001
			CHANNELS 3 Xrotation Yrotation Zrotation
			JOINT C_spine0003_bind_JNT
			{
				OFFSET 0.000000 4.942001 -0.000000
				CHANNELS 3 Xrotation Yrotation Zrotation
				JOINT C_neck0001_bind_JNT
				{
					OFFSET 0.000000 17.026009 -0.000000
					CHANNELS 3 Xrotation Yrotation Zrotation
					JOINT C_neck0002_bind_JNT
					{
						OFFSET 0.000000 3.249985 0.000000
						CHANNELS 3 Xrotation Yrotation Zrotation
						JOINT C_head_bind_JNT
						{
							OFFSET 0.000000 5.278008 0.000000
							CHANNELS 3 Xrotation Yrotation Zrotation
							End Site
							{
								OFFSET 0.000000 0.000000 0.000000
							}
						}
					}
				}
				JOINT L_clavicle_bind_JNT
				{
					OFFSET 4.590000 12.067001 0.834000
					CHANNELS 3 Xrotation Yrotation Zrotation
					JOINT L_armUpper0001_bind_JNT
					{
						OFFSET 7.812635 0.512001 -3.452945
						CHANNELS 3 Xrotation Yrotation Zrotation
						JOINT L_armLower0001_bind_JNT
						{
							OFFSET 15.265892 -6.552116 -0.058157
							CHANNELS 3 Xrotation Yrotation Zrotation
							JOINT L_hand0001_bind_JNT
							{
								OFFSET 14.747667 -6.369995 5.049225
								CHANNELS 3 Xrotation Yrotation Zrotation
								End Site
								{
									OFFSET 0.000000 0.000000 0.000000
								}
							}
						}
					}
				}
				JOINT R_clavicle_bind_JNT
				{
					OFFSET -4.590000 12.067001 0.834000
					CHANNELS 3 Xrotation Yrotation Zrotation
					JOINT R_armUpper0001_bind_JNT
					{
						OFFSET -7.812635 0.512001 -3.452945
						CHANNELS 3 Xrotation Yrotation Zrotation
						JOINT R_armLower0001_bind_JNT
						{
							OFFSET -15.265890 -6.552124 -0.058160
							CHANNELS 3 Xrotation Yrotation Zrotation
							JOINT R_hand0001_bind_JNT
							{
								OFFSET -14.746784 -6.369629 5.048937
								CHANNELS 3 Xrotation Yrotation Zrotation
								End Site
								{
									OFFSET 0.000000 0.000000 0.000000
								}
							}
						}
					}
				}
			}
		}
	}
	JOINT C_pelvis0001_bind_JNT
	{
		OFFSET -0.000000 0.000000 0.000000
		CHANNELS 3 Xrotation Yrotation Zrotation
		JOINT L_legUpper0001_bind_JNT
		{
			OFFSET 6.599999 -6.027000 0.539000
			CHANNELS 3 Xrotation Yrotation Zrotation
			JOINT L_legLower0001_bind_JNT
			{
				OFFSET -0.140713 -19.187443 0.040261
				CHANNELS 3 Xrotation Yrotation Zrotation
				JOINT L_foot0001_bind_JNT
				{
					OFFSET -0.132215 -18.028637 -1.138370
					CHANNELS 3 Xrotation Yrotation Zrotation
					JOINT L_foot0002_bind_JNT
					{
						OFFSET 0.007014 -4.693133 9.886524
						CHANNELS 3 Xrotation Yrotation Zrotation
						End Site
						{
							OFFSET 0.000000 0.000000 0.000000
						}
					}
				}
			}
		}
		JOINT R_legUpper0001_bind_JNT
		{
			OFFSET -6.599999 -6.027000 0.539000
			CHANNELS 3 Xrotation Yrotation Zrotation
			JOINT R_legLower0001_bind_JNT
			{
				OFFSET 0.140710 -19.187164 0.040550
				CHANNELS 3 Xrotation Yrotation Zrotation
				JOINT R_foot0001_bind_JNT
				{
					OFFSET 0.132215 -18.028633 -1.138362
					CHANNELS 3 Xrotation Yrotation Zrotation
					JOINT R_foot0002_bind_JNT
					{
						OFFSET -0.007014 -4.693128 9.886505
						CHANNELS 3 Xrotation Yrotation Zrotation
						End Site
						{
							OFFSET 0.000000 0.000000 0.000000
						}
					}
				}
			}
		}
	}
}
MOTION
Frames: 5
Frame Time: 0.033333
0.000000 49.083302 0.000000 0.057429 -3.509846 0.001183 5.514349 3.364871 0.889100 -6.166757 0.231249 0.723641 2.622025 0.413566 0.852080 23.298668 -1.184654 0.997727 -0.234049 -0.731499 0.800525 4.290674 -2.682127 3.977589 2.266521 -2.310061 0.853293 -4.518159 -8.159368 -59.503189 9.103635 13.778595 -5.283893 -0.743647 -14.377877 -28.346441 -2.305896 -1.788975 4.208744 -0.300538 -0.680812 59.939728 8.551221 -11.734077 -0.918028 4.666496 15.050206 21.854855 7.788568 2.886073 -0.903369 -2.986907 -4.614941 1.258643 6.432049 4.450225 -0.733419 -6.646956 3.476109 -1.916510 -4.758136 -0.742284 0.121940 -7.714581 0.377830 -4.613904 6.370549 -0.513169 0.091324 -2.936272 4.665370 3.485349 -3.748348 0.726916 0.889876 
0.280643 49.190891 -0.168991 0.015054 -4.134798 -0.045999 5.217660 3.767732 0.907180 -5.927949 0.100746 0.672277 2.661415 0.329543 0.929812 22.091333 -1.587900 1.510562 0.211837 -0.020879 0.017757 5.314684 -1.960928 3.279959 1.867159 -3.441634 0.226497 -3.135102 -8.013788 -60.031582 4.194760 13.592291 -5.332663 0.496928 -13.943455 -28.777369 -1.589124 -0.367096 4.397111 -2.600979 -0.830474 57.696175 6.935438 -14.578007 1.521000 6.663542 17.220560 19.948063 8.455178 3.910914 -0.406084 -3.338270 -4.335310 0.337720 5.586181 4.710083 -1.117505 -7.238475 2.971972 -1.379145 -3.745833 0.188010 0.855245 -9.424229 0.110586 -5.605869 7.270844 -0.554587 0.380400 -3.093617 4.396708 3.935056 -3.524507 0.774418 0.522586 
0.132184 49.133778 -0.023248 0.015704 -3.155068 -0.017478 5.035764 3.026739 1.407300 -6.035473 -0.110585 0.655072 2.653110 0.221279 1.154114 22.398338 -1.460969 1.323515 -0.147423 0.256191 0.006767 6.570201 -2.582647 2.708292 1.760802 -2.320304 0.648437 -2.314459 -6.476156 -60.276348 4.926685 12.692819 -5.254360 1.946038 -13.790111 -27.899881 -1.106200 -0.935221 3.835416 -2.860391 -1.003565 58.638214 6.794925 -13.773981 0.634833 6.462645 16.782770 20.059389 8.186870 3.072576 -0.024955 -3.799172 -3.644565 0.070468 6.126386 3.664305 -0.845949 -6.485274 3.693966 -1.645336 -3.994919 -0.581839 0.801225 -9.400680 1.120388 -5.187101 8.743882 -0.812195 0.454396 -4.144975 3.597609 3.240269 -3.580124 1.176916 0.347575 
-0.062218 49.082291 -0.136347 0.033067 -3.480762 -0.033860 4.984164 3.512072 1.577261 -6.302724 -0.155508 0.857985 2.449692 0.029281 0.789351 22.643414 -0.963032 1.380183 0.113188 -0.146361 -0.093689 6.910563 -2.099664 2.648111 2.205916 -1.556247 1.729029 -2.580610 -5.911879 -61.241802 4.199313 13.527282 -5.216360 2.893205 -13.873807 -27.300554 -0.412016 -0.911634 3.432237 -3.362566 -1.105446 58.603600 6.769280 -14.490360 1.124076 5.913100 17.641979 20.374329 8.184403 3.934247 0.084474 -3.696383 -3.608674 0.374709 6.341601 3.203964 -0.882992 -6.643049 3.713175 -1.896654 -4.008502 -0.423875 0.591551 -10.589669 1.448721 -5.067270 10.928889 -1.130172 0.844600 -5.008370 3.241134 2.983615 -3.240263 0.868657 0.085894 
-0.090989 49.201363 -0.151037 0.023994 -4.030678 -0.024969 4.558077 4.638522 1.736344 -6.079065 -0.246415 0.995428 2.222934 -0.225580 0.840384 23.266781 -1.020980 0.906157 0.001430 -0.139181 0.114060 7.366496 -1.639214 2.441702 2.820298 -1.010808 1.748690 -2.756826 -5.500399 -61.131050 4.441396 13.406736 -5.622186 2.610697 -13.177098 -26.669950 -0.019378 -0.756187 2.705281 -3.555661 -1.730481 59.501701 6.955508 -14.379601 0.449754 4.871087 17.663885 20.895052 8.185288 4.808778 -0.046880 -3.959011 -3.129285 -0.031733 6.594084 2.351288 -0.439254 -6.509281 4.260881 -1.623265 -4.059125 -0.631277 0.263828 -10.993358 1.784252 -4.891120 11.729029 -1.199515 0.929304 -4.779139 2.470673 2.735161 -3.911158 0.728725 0.175964 
